<svg viewBox="0 0 400 320" xmlns="http://www.w3.org/2000/svg" role="img" aria-label="Ilustración de servidores replicando información entre sí">
  <rect x="20" y="40" width="110" height="80" rx="10" fill="#F3F6F7" stroke="#1C4E5A" stroke-width="2"/>
  <rect x="145" y="40" width="110" height="80" rx="10" fill="#F3F6F7" stroke="#1C4E5A" stroke-width="2"/>
  <rect x="270" y="40" width="110" height="80" rx="10" fill="#F3F6F7" stroke="#1C4E5A" stroke-width="2"/>

  <g fill="#1C4E5A">
    <rect x="35" y="55" width="80" height="10" rx="3" opacity="0.85"/>
    <rect x="35" y="72" width="60" height="10" rx="3" opacity="0.6"/>
    <rect x="35" y="89" width="70" height="10" rx="3" opacity="0.4"/>

    <rect x="160" y="55" width="80" height="10" rx="3" opacity="0.85"/>
    <rect x="160" y="72" width="60" height="10" rx="3" opacity="0.6"/>
    <rect x="160" y="89" width="70" height="10" rx="3" opacity="0.4"/>

    <rect x="285" y="55" width="80" height="10" rx="3" opacity="0.85"/>
    <rect x="285" y="72" width="60" height="10" rx="3" opacity="0.6"/>
    <rect x="285" y="89" width="70" height="10" rx="3" opacity="0.4"/>
  </g>

  <path d="M130,80 H145 M255,80 H270" stroke="#5FA8D3" stroke-width="3" stroke-dasharray="5 5"/>

  <path d="M75,120 V180 M200,120 V180 M325,120 V180" stroke="#5FA8D3" stroke-width="3" stroke-dasharray="5 5"/>
  <path d="M75,180 H325" stroke="#5FA8D3" stroke-width="3"/>

  <g transform="translate(200,220)">
    <circle r="36" fill="#1C4E5A"/>
    <text x="0" y="7" text-anchor="middle" font-family="Inter, sans-serif" font-size="14" fill="#FFFFFF" font-weight="600">RED</text>
  </g>
</svg>
